<svg width="143" height="124" viewBox="0 0 143 124" fill="none" xmlns="http://www.w3.org/2000/svg">
<path d="M37.3684 25.688V93.272C37.3684 94.744 36.0884 95.48 33.5284 95.48C30.9684 95.48 29.6884 94.744 29.6884 93.272V25.688C29.6884 24.216 30.9684 23.48 33.5284 23.48C36.0884 23.48 37.3684 24.216 37.3684 25.688ZM72.9184 61.784H50.8384V93.272C50.8384 94.744 49.5584 95.48 46.9984 95.48C44.4384 95.48 43.1584 94.744 43.1584 93.272V40.856C43.1584 34.904 44.3104 30.616 46.6144 27.992C48.9184 25.304 52.8224 23.96 58.3264 23.96H76.7584C78.0384 23.96 78.6784 25.08 78.6784 27.32C78.6784 29.56 78.0384 30.68 76.7584 30.68H58.3264C55.5744 30.68 53.6224 31.448 52.4704 32.984C51.3824 34.52 50.8384 37.144 50.8384 40.856V55.064H72.9184C74.1984 55.064 74.8384 56.184 74.8384 58.424C74.8384 60.664 74.1984 61.784 72.9184 61.784ZM93.294 96.4531C86.294 96.4531 80.5128 94.1094 75.9503 89.4219C71.3878 84.7031 69.1065 77.9844 69.1065 69.2656C69.1065 60.5156 71.3878 53.8281 75.9503 49.2031C80.544 44.5469 86.294 42.2188 93.2003 42.2188C100.107 42.2188 105.513 43.6406 109.419 46.4844C113.325 49.3281 115.888 53.2812 117.107 58.3438C117.294 59.125 116.966 59.5 116.122 59.4688H110.075C109.638 59.4688 109.263 59.1562 108.95 58.5312C106.013 52.125 101.044 48.9219 94.044 48.9219C89.169 48.9219 85.2315 50.625 82.2315 54.0312C79.2315 57.4062 77.7315 62.4688 77.7315 69.2188C77.7315 75.9688 79.2315 81.0781 82.2315 84.5469C85.2628 87.9844 88.9659 89.7031 93.3409 89.7031C97.7159 89.7031 101.107 88.9062 103.513 87.3125C105.919 85.7188 107.888 83.3281 109.419 80.1406C109.732 79.5156 110.122 79.1875 110.591 79.1562H116.638C117.325 79.1562 117.653 79.4062 117.622 79.9062C117.622 80.0312 117.607 80.1719 117.575 80.3281C116.357 85.4531 113.763 89.4219 109.794 92.2344C105.825 95.0469 100.325 96.4531 93.294 96.4531Z" fill="#FFF8F8"/>
<g filter="url(#filter0_d)">
<path d="M7.0005 54.6051C7.0005 44.434 6.93218 82.9781 6.99336 111.011C6.99697 112.665 8.33889 114 9.9927 114H112.121C113.055 114 113.936 113.565 114.504 112.823L136.308 84.336C137.819 82.3622 136.412 79.5126 133.926 79.5126H132.362C131.418 79.5126 130.529 79.9568 129.963 80.7116L114.503 101.305C113.937 102.06 113.048 102.504 112.104 102.504H19.1419C17.4834 102.504 16.1396 101.161 16.1422 99.5026C16.1782 76.1559 16.2741 49.4605 16.27 34.9664M16.27 34.9664C16.2677 26.7555 16.2333 22.4602 16.1379 24.9076L16.27 34.9664Z" stroke="#F39F18" stroke-width="4"/>
</g>
<defs>
<filter id="filter0_d" x="0.967903" y="22.2206" width="141.967" height="101.78" filterUnits="userSpaceOnUse" color-interpolation-filters="sRGB">
<feFlood flood-opacity="0" result="BackgroundImageFix"/>
<feColorMatrix in="SourceAlpha" type="matrix" values="0 0 0 0 0 0 0 0 0 0 0 0 0 0 0 0 0 0 127 0"/>
<feOffset dy="4"/>
<feGaussianBlur stdDeviation="2"/>
<feColorMatrix type="matrix" values="0 0 0 0 0 0 0 0 0 0 0 0 0 0 0 0 0 0 0.25 0"/>
<feBlend mode="normal" in2="BackgroundImageFix" result="effect1_dropShadow"/>
<feBlend mode="normal" in="SourceGraphic" in2="effect1_dropShadow" result="shape"/>
</filter>
</defs>
</svg>
