<svg width="188" height="32" viewBox="0 0 188 32" fill="none" xmlns="http://www.w3.org/2000/svg">
<path d="M6.74959 3.352C8.58426 3.352 10.5683 3.24533 12.7016 3.032C12.7869 3.16 12.8296 3.416 12.8296 3.8C12.8296 4.184 12.7869 4.46133 12.7016 4.632C11.8909 4.632 11.2509 4.71733 10.7816 4.888C10.3123 5.05867 10.0563 5.208 10.0136 5.336C9.80026 5.80533 9.67226 6.36 9.62959 7C9.62959 7.64 9.62959 8.408 9.62959 9.304V25.56C9.62959 26.7973 9.75759 27.736 10.0136 28.376C10.2696 28.9307 11.1869 29.208 12.7656 29.208H15.5176C17.2243 29.208 18.5043 28.7813 19.3576 27.928C20.2536 27.032 21.0429 25.6667 21.7256 23.832C21.7683 23.6613 21.9176 23.576 22.1736 23.576C22.9416 23.576 23.4109 23.6613 23.5816 23.832C23.3683 24.3867 23.1549 25.0053 22.9416 25.688C22.7283 26.328 22.5149 26.968 22.3016 27.608C21.7896 28.9307 21.4483 30.0827 21.2776 31.064C16.3283 31.064 11.3789 31.064 6.42959 31.064L0.669591 31.128C0.584257 31 0.541591 30.744 0.541591 30.36C0.541591 29.976 0.584257 29.72 0.669591 29.592C0.840257 29.592 1.20292 29.5493 1.75759 29.464C2.69626 29.336 3.25092 29.1227 3.42159 28.824C3.63492 28.312 3.74159 26.9893 3.74159 24.856V9.304C3.74159 7.256 3.63492 5.93333 3.42159 5.336C3.12292 4.86667 2.20559 4.632 0.669591 4.632C0.584257 4.46133 0.541591 4.184 0.541591 3.8C0.541591 3.416 0.584257 3.16 0.669591 3.032C2.80292 3.24533 4.82959 3.352 6.74959 3.352ZM31.5538 21.064C30.7218 21.832 30.3058 22.824 30.3058 24.04C30.3058 25.16 30.6418 26.2 31.3138 27.16C32.0818 28.184 33.1538 28.696 34.5298 28.696C35.3298 28.696 36.0018 28.456 36.5458 27.976L31.5538 21.064ZM34.2418 11.8C33.6018 11.8 33.1538 12.104 32.8978 12.712C32.6418 13.32 32.5138 13.992 32.5138 14.728C32.5138 15.432 32.7058 16.088 33.0898 16.696C33.4738 17.272 33.7938 17.736 34.0498 18.088C34.7538 17.736 35.2658 17.304 35.5858 16.792C35.9378 16.28 36.1138 15.752 36.1138 15.208C36.1138 14.632 36.0818 14.184 36.0178 13.864C35.9858 13.512 35.8898 13.176 35.7298 12.856C35.4098 12.152 34.9138 11.8 34.2418 11.8ZM37.4098 29.08C35.9698 30.456 34.1458 31.144 31.9378 31.144C30.4978 31.144 29.2178 30.712 28.0978 29.848C26.8498 28.856 26.2258 27.592 26.2258 26.056C26.2258 23.784 27.2178 22.008 29.2018 20.728C29.7138 20.376 30.1938 20.056 30.6418 19.768C30.2898 19.288 29.8898 18.728 29.4418 18.088C29.0258 17.416 28.8178 16.648 28.8178 15.784C28.8178 14.888 28.9618 14.136 29.2498 13.528C29.5378 12.92 29.9378 12.392 30.4498 11.944C31.5058 11.016 32.8178 10.552 34.3858 10.552C35.9858 10.552 37.2178 10.888 38.0818 11.56C38.9458 12.232 39.3778 13.128 39.3778 14.248C39.3778 16.104 38.4338 17.56 36.5458 18.616C36.0018 18.904 35.4578 19.16 34.9138 19.384L39.3298 25.288C40.6098 23.784 41.2498 22.936 41.2498 22.744C41.2498 22.52 41.1698 22.376 41.0098 22.312C40.8818 22.248 40.7218 22.2 40.5298 22.168C40.3698 22.136 40.1938 22.136 40.0018 22.168C39.8418 22.168 39.7298 22.136 39.6658 22.072C39.6338 22.008 39.6178 21.848 39.6178 21.592C39.6178 21.304 39.6498 21.144 39.7138 21.112L41.8738 21.16C43.1218 21.16 44.4818 21.128 45.9538 21.064C46.0178 21.096 46.0338 21.256 46.0018 21.544C46.0018 21.832 45.9698 22.024 45.9058 22.12H45.5218C44.6898 22.12 44.0818 22.264 43.6978 22.552C43.4738 22.776 43.0578 23.224 42.4498 23.896C41.3938 25.112 40.6418 25.944 40.1938 26.392C40.2578 26.456 40.3858 26.6 40.5778 26.824C40.7698 27.048 40.9778 27.288 41.2018 27.544C41.8418 28.152 42.2738 28.456 42.4978 28.456C42.7538 28.456 42.9778 28.392 43.1698 28.264C43.3938 28.136 43.5858 27.976 43.7458 27.784C43.9378 27.592 44.0978 27.4 44.2258 27.208C44.3538 27.016 44.4658 26.872 44.5618 26.776C44.7218 26.776 44.8818 26.84 45.0418 26.968C45.2018 27.064 45.3138 27.192 45.3778 27.352C45.3458 27.448 45.1858 27.704 44.8978 28.12C44.6098 28.504 44.2418 28.92 43.7938 29.368C42.7058 30.52 41.7298 31.096 40.8658 31.096C40.0338 31.096 39.3618 30.904 38.8498 30.52C38.3378 30.104 37.8578 29.624 37.4098 29.08Z" fill="#FFA600"/>
<path d="M58.3419 5.336C58.2566 5.592 58.1926 5.93333 58.1499 6.36C58.1499 6.78667 58.1499 10.008 58.1499 16.024V25.56C58.1499 26.7973 58.2779 27.736 58.5339 28.376C58.6619 28.6747 58.9819 28.9093 59.4939 29.08C60.0486 29.2507 60.6032 29.336 61.1579 29.336C64.6139 29.336 67.1526 28.376 68.7739 26.456C70.3952 24.4933 71.2059 21.4427 71.2059 17.304C71.2059 13.2933 70.2032 10.1787 68.1979 7.96C66.3206 5.86933 63.7606 4.824 60.5179 4.824C60.0059 4.824 59.5366 4.84533 59.1099 4.888C58.7259 4.93067 58.4699 5.08 58.3419 5.336ZM55.2699 3.224C57.1046 3.224 59.2592 3.18133 61.7339 3.096C66.6406 3.096 70.5659 4.29067 73.5099 6.68C76.4539 9.15467 77.9259 12.5253 77.9259 16.792C77.9259 21.5707 76.3259 25.1973 73.1259 27.672C70.2246 29.976 66.3206 31.128 61.4139 31.128C57.3606 31.128 53.2859 31.128 49.1899 31.128C49.1046 31 49.0619 30.744 49.0619 30.36C49.0619 29.976 49.1046 29.72 49.1899 29.592C49.3606 29.592 49.7232 29.5493 50.2779 29.464C51.2166 29.336 51.7712 29.1227 51.9419 28.824C52.1552 28.312 52.2619 26.9893 52.2619 24.856V9.304C52.2619 7.256 52.1552 5.93333 51.9419 5.336C51.6432 4.90933 50.7259 4.696 49.1899 4.696C49.1046 4.52533 49.0619 4.248 49.0619 3.864C49.0619 3.48 49.1046 3.224 49.1899 3.096C50.1712 3.18133 51.1952 3.224 52.2619 3.224H55.2699ZM82.2588 4.568C82.2588 3.58667 82.5361 2.75467 83.0908 2.072C83.6881 1.34667 84.3921 0.984001 85.2028 0.984001C86.0561 0.984001 86.6321 1.28267 86.9308 1.88C86.6748 5.72 86.3548 8.81333 85.9708 11.16C85.7574 11.4587 85.3948 11.7147 84.8828 11.928C84.6694 11.928 84.4988 11.8427 84.3708 11.672C83.9014 10.4347 83.4321 9.176 82.9628 7.896C82.4934 6.616 82.2588 5.50667 82.2588 4.568ZM102.896 12.888C102.81 13.1013 102.661 13.8907 102.448 15.256V24.856C102.448 26.9893 102.512 28.2267 102.64 28.568C102.768 28.8667 102.938 29.08 103.152 29.208C103.365 29.2933 103.6 29.3787 103.856 29.464C104.282 29.5493 104.73 29.592 105.2 29.592C105.285 29.7627 105.328 30.04 105.328 30.424C105.328 30.808 105.285 31.064 105.2 31.192C103.066 30.9787 101.232 30.872 99.6955 30.872C97.9462 30.872 96.0049 30.9787 93.8715 31.192C93.7862 31.064 93.7435 30.808 93.7435 30.424C93.7435 30.04 93.7862 29.7627 93.8715 29.592C94.7675 29.592 95.4289 29.5067 95.8555 29.336C96.2822 29.1227 96.5382 28.952 96.6235 28.824C96.8369 28.312 96.9435 26.9893 96.9435 24.856V19.352C96.9435 19.0107 96.9009 18.4987 96.8155 17.816C96.7302 17.1333 96.6449 16.7067 96.5595 16.536C96.2609 15.9813 95.3649 15.704 93.8715 15.704C93.7862 15.6613 93.7435 15.448 93.7435 15.064C93.7862 14.6373 93.8502 14.424 93.9355 14.424C95.5569 14.296 97.1355 13.9973 98.6715 13.528C100.208 13.016 101.381 12.568 102.192 12.184C102.32 12.2267 102.469 12.3333 102.64 12.504C102.81 12.6747 102.896 12.8027 102.896 12.888ZM96.2395 4.952C96.2395 4.09867 96.5169 3.39467 97.0715 2.84C97.6689 2.24267 98.3942 1.944 99.2475 1.944C100.101 1.944 100.826 2.24267 101.424 2.84C102.021 3.39467 102.32 4.09867 102.32 4.952C102.32 5.80533 102.021 6.53067 101.424 7.128C100.826 7.72533 100.101 8.024 99.2475 8.024C98.3942 8.024 97.6689 7.72533 97.0715 7.128C96.5169 6.53067 96.2395 5.80533 96.2395 4.952ZM117.603 13.848C115.683 13.848 114.616 15.4267 114.403 18.584C114.318 19.4373 114.275 20.2907 114.275 21.144C114.275 21.9973 114.339 22.936 114.467 23.96C114.638 24.9413 114.915 25.8373 115.299 26.648C116.11 28.568 117.198 29.528 118.563 29.528C120.568 29.528 121.699 27.9707 121.955 24.856C121.998 24.0453 122.019 23.2133 122.019 22.36C122.019 21.5067 121.934 20.568 121.763 19.544C121.592 18.52 121.315 17.6027 120.931 16.792C120.12 14.8293 119.011 13.848 117.603 13.848ZM118.115 12.12C119.566 12.12 120.888 12.3547 122.083 12.824C123.32 13.2933 124.387 13.9547 125.283 14.808C127.118 16.6 128.035 18.84 128.035 21.528C128.035 24.1733 127.075 26.4773 125.155 28.44C123.32 30.36 120.995 31.32 118.179 31.32C115.235 31.32 112.846 30.4027 111.011 28.568C109.176 26.7333 108.259 24.4933 108.259 21.848C108.259 19.2453 109.198 16.9627 111.075 15C112.952 13.08 115.299 12.12 118.115 12.12ZM137.496 30.872C135.746 30.872 133.805 30.9787 131.672 31.192C131.586 31.064 131.544 30.808 131.544 30.424C131.544 30.04 131.586 29.7627 131.672 29.592C132.568 29.592 133.229 29.5067 133.656 29.336C134.082 29.1227 134.338 28.952 134.424 28.824C134.637 28.312 134.744 26.9893 134.744 24.856V19.352C134.744 19.0107 134.701 18.4987 134.616 17.816C134.53 17.1333 134.445 16.7067 134.36 16.536C134.061 15.9813 133.165 15.704 131.672 15.704C131.586 15.6613 131.544 15.448 131.544 15.064C131.586 14.6373 131.65 14.424 131.736 14.424C133.357 14.296 134.936 13.9973 136.472 13.528C138.008 13.016 139.181 12.568 139.992 12.184C140.12 12.2267 140.269 12.3333 140.44 12.504C140.61 12.6747 140.674 12.8027 140.632 12.888C140.632 12.9733 140.61 13.1653 140.568 13.464C140.525 13.7627 140.482 14.104 140.44 14.488C140.397 14.8293 140.354 15.1707 140.312 15.512C140.269 15.8533 140.248 16.088 140.248 16.216C140.248 16.3013 140.29 16.3653 140.376 16.408C140.461 16.408 140.504 16.3867 140.504 16.344C141.272 15.064 141.912 14.168 142.424 13.656C143.533 12.632 144.664 12.12 145.816 12.12C147.096 12.12 147.97 12.3547 148.44 12.824C148.781 13.336 148.952 13.912 148.952 14.552C148.952 15.1493 148.888 15.6613 148.76 16.088C148.632 16.472 148.44 16.8347 148.184 17.176C147.672 17.9013 147.074 18.264 146.392 18.264C146.008 18.264 145.666 18.136 145.368 17.88C145.112 17.624 144.856 17.3893 144.6 17.176C144.386 16.9627 144.152 16.7707 143.896 16.6C143.682 16.3867 143.384 16.28 143 16.28C142.616 16.28 142.253 16.4293 141.912 16.728C141.57 16.984 141.272 17.304 141.016 17.688C140.504 18.456 140.248 19.1387 140.248 19.736V24.856C140.248 26.9893 140.312 28.2267 140.44 28.568C140.568 28.8667 140.738 29.08 140.952 29.208C141.165 29.2933 141.4 29.3787 141.656 29.464C142.082 29.5493 142.53 29.592 143 29.592C143.085 29.7627 143.128 30.04 143.128 30.424C143.128 30.808 143.085 31.064 143 31.192C140.866 30.9787 139.032 30.872 137.496 30.872ZM161.892 12.888C161.807 13.1013 161.658 13.8907 161.444 15.256V24.856C161.444 26.9893 161.508 28.2267 161.636 28.568C161.764 28.8667 161.935 29.08 162.148 29.208C162.362 29.2933 162.596 29.3787 162.852 29.464C163.279 29.5493 163.727 29.592 164.196 29.592C164.282 29.7627 164.324 30.04 164.324 30.424C164.324 30.808 164.282 31.064 164.196 31.192C162.063 30.9787 160.228 30.872 158.692 30.872C156.943 30.872 155.002 30.9787 152.868 31.192C152.783 31.064 152.74 30.808 152.74 30.424C152.74 30.04 152.783 29.7627 152.868 29.592C153.764 29.592 154.426 29.5067 154.852 29.336C155.279 29.1227 155.535 28.952 155.62 28.824C155.834 28.312 155.94 26.9893 155.94 24.856V19.352C155.94 19.0107 155.898 18.4987 155.812 17.816C155.727 17.1333 155.642 16.7067 155.556 16.536C155.258 15.9813 154.362 15.704 152.868 15.704C152.783 15.6613 152.74 15.448 152.74 15.064C152.783 14.6373 152.847 14.424 152.932 14.424C154.554 14.296 156.132 13.9973 157.668 13.528C159.204 13.016 160.378 12.568 161.188 12.184C161.316 12.2267 161.466 12.3333 161.636 12.504C161.807 12.6747 161.892 12.8027 161.892 12.888ZM155.236 4.952C155.236 4.09867 155.514 3.39467 156.068 2.84C156.666 2.24267 157.391 1.944 158.244 1.944C159.098 1.944 159.823 2.24267 160.42 2.84C161.018 3.39467 161.316 4.09867 161.316 4.952C161.316 5.80533 161.018 6.53067 160.42 7.128C159.823 7.72533 159.098 8.024 158.244 8.024C157.391 8.024 156.666 7.72533 156.068 7.128C155.514 6.53067 155.236 5.80533 155.236 4.952ZM176.6 13.848C174.68 13.848 173.613 15.4267 173.4 18.584C173.314 19.4373 173.272 20.2907 173.272 21.144C173.272 21.9973 173.336 22.936 173.464 23.96C173.634 24.9413 173.912 25.8373 174.296 26.648C175.106 28.568 176.194 29.528 177.56 29.528C179.565 29.528 180.696 27.9707 180.952 24.856C180.994 24.0453 181.016 23.2133 181.016 22.36C181.016 21.5067 180.93 20.568 180.76 19.544C180.589 18.52 180.312 17.6027 179.928 16.792C179.117 14.8293 178.008 13.848 176.6 13.848ZM177.112 12.12C178.562 12.12 179.885 12.3547 181.08 12.824C182.317 13.2933 183.384 13.9547 184.28 14.808C186.114 16.6 187.032 18.84 187.032 21.528C187.032 24.1733 186.072 26.4773 184.152 28.44C182.317 30.36 179.992 31.32 177.176 31.32C174.232 31.32 171.842 30.4027 170.008 28.568C168.173 26.7333 167.256 24.4933 167.256 21.848C167.256 19.2453 168.194 16.9627 170.072 15C171.949 13.08 174.296 12.12 177.112 12.12Z" fill="#FAF4F4"/>
</svg>
